<?xml version="1.0" standalone="no"?><!DOCTYPE svg PUBLIC "-//W3C//DTD SVG 1.1//EN" "http://www.w3.org/Graphics/SVG/1.1/DTD/svg11.dtd"><svg t="1672600275051" class="icon" viewBox="0 0 1024 1024" version="1.1" xmlns="http://www.w3.org/2000/svg" p-id="3059" xmlns:xlink="http://www.w3.org/1999/xlink" width="200" height="200"><path d="M96.256 391.3728h-5.7344c-24.576 0-44.6464-20.0704-44.6464-44.6464s20.0704-44.6464 44.6464-44.6464l106.0864 0.2048c5.7344 0 10.24 4.5056 10.24 10.24s-4.5056 10.24-10.24 10.24l-106.0864-0.2048c-13.312 0-24.1664 10.8544-24.1664 24.1664 0 13.312 10.8544 24.1664 24.1664 24.1664H96.256c5.7344 0 10.24 4.5056 10.24 10.24s-4.5056 10.24-10.24 10.24zM670.5152 481.0752c-0.6144 0-1.2288 0-1.8432-0.2048C614.6048 471.04 575.488 423.936 575.488 369.2544c0-62.464 50.9952-113.4592 113.4592-113.4592 44.4416 0 84.992 26.4192 103.424 66.9696 2.2528 5.12 0 11.264-5.12 13.5168-5.12 2.2528-11.264 0-13.5168-5.12-15.1552-33.3824-48.3328-55.0912-84.5824-55.0912-51.2 0-92.9792 41.7792-92.9792 92.9792 0 44.8512 32.1536 83.3536 76.3904 91.5456 5.5296 1.024 9.216 6.3488 8.192 11.8784-1.024 5.12-5.3248 8.6016-10.24 8.6016z" fill="" p-id="3060"></path><path d="M836.4032 489.472h-108.544v-151.552h249.856v10.24c0 77.824-63.488 141.312-141.312 141.312z m-88.064-20.48h88.064c63.0784 0 115.0976-48.7424 120.4224-110.592H748.3392v110.592z" fill="" p-id="3061"></path><path d="M811.8272 405.504m-16.384 0a16.384 16.384 0 1 0 32.768 0 16.384 16.384 0 1 0-32.768 0Z" fill="" p-id="3062"></path><path d="M275.8656 777.216c-5.7344 0-10.24-4.5056-10.24-10.24v-122.0608c0-5.7344 4.5056-10.24 10.24-10.24s10.24 4.5056 10.24 10.24v122.0608c0 5.7344-4.5056 10.24-10.24 10.24zM528.5888 777.216c-5.7344 0-10.24-4.5056-10.24-10.24v-122.0608c0-5.7344 4.5056-10.24 10.24-10.24s10.24 4.5056 10.24 10.24v122.0608c0 5.7344-4.5056 10.24-10.24 10.24z" fill="" p-id="3063"></path><path d="M580.4032 645.3248h-264.192c-106.9056 0-193.9456-85.1968-193.9456-189.8496s87.04-189.8496 193.9456-189.8496h264.192c5.7344 0 10.24 4.5056 10.24 10.24s-4.5056 10.24-10.24 10.24h-264.192c-95.6416 0-173.4656 75.9808-173.4656 169.3696s77.824 169.3696 173.4656 169.3696h264.192c66.9696 0 128.8192-38.5024 157.2864-98.0992 2.4576-5.12 8.6016-7.168 13.7216-4.9152 5.12 2.4576 7.168 8.6016 4.9152 13.7216-31.9488 66.7648-100.9664 109.7728-175.9232 109.7728z" fill="" p-id="3064"></path><path d="M341.8112 737.6896c-5.7344 0-10.24-4.5056-10.24-10.24v-82.5344c0-5.7344 4.5056-10.24 10.24-10.24s10.24 4.5056 10.24 10.24v82.5344c0 5.7344-4.5056 10.24-10.24 10.24zM594.5344 737.6896c-5.7344 0-10.24-4.5056-10.24-10.24v-82.5344c0-5.7344 4.5056-10.24 10.24-10.24s10.24 4.5056 10.24 10.24v82.5344c0 5.7344-4.5056 10.24-10.24 10.24z" fill="" p-id="3065"></path></svg>